# xmcd
#
# Track frame offsets: 
#        150
#        14217
#        26030
#        36535
#        48552
#        64570
#        78025
#        96255
#        110157
#        125835
#        140835
#        159712
#        174662
#        187050
#
# Disc length: 2639 seconds
#
# Revision: 3
# Processed by: cddbd v1.5.2PL0 Copyright (c) Steve Scherf et al.
# Submitted via: ExactAudioCopyFreeDBPlugin 1.0
#
DISCID=d60a4d0e
DTITLE=Bill Kirchen - Have Love, Will Travel
DYEAR=1996
DGENRE=Country
TTITLE0=Womb To The Tomb
TTITLE1=Which Came First
TTITLE2=Don't Be True
TTITLE3=Have Love Will Travel
TTITLE4=High Snakes In Deep Water
TTITLE5=Swingin' Teardrops
TTITLE6=Who's That Who
TTITLE7=Red Cajun Girl
TTITLE8=I Heard The Highway
TTITLE9=Nitro Express
TTITLE10=The Heart Is A Muscle
TTITLE11=What's The Matter With The Mill
TTITLE12=Swing Fever
TTITLE13=I Don't Like To Work
EXTD=
EXTT0=
EXTT1=
EXTT2=
EXTT3=
EXTT4=
EXTT5=
EXTT6=
EXTT7=
EXTT8=
EXTT9=
EXTT10=
EXTT11=
EXTT12=
EXTT13=
PLAYORDER=
